# xmcd
#
# Track frame offsets: 
#        182
#        14162
#        31595
#        48915
#        63020
#        75882
#        90485
#        104225
#        122847
#        133290
#
# Disc length: 2009 seconds
#
# Revision: 3
# Processed by: cddbd v1.5.2PL0 Copyright (c) Steve Scherf et al.
# Submitted via: ExactAudioCopy v0.95a3
#
DISCID=7b07d70a
DTITLE=George Strait - Carrying Your Love With Me
DYEAR=1997
DGENRE=Country
TTITLE0=Round About Way
TTITLE1=Carrying Your Love With Me
TTITLE2=One Night At A Time
TTITLE3=She'll Leave You With A Smile
TTITLE4=Won't You Come Home Home (And Talk To A Stranger)
TTITLE5=Today My World Slipped Away
TTITLE6=I've Got A Funny Feeling
TTITLE7=The Nerve
TTITLE8=That's Me (Every Chance I Get)
TTITLE9=A Real Good Place To Start
EXTD=
EXTT0=
EXTT1=
EXTT2=
EXTT3=
EXTT4=
EXTT5=
EXTT6=
EXTT7=
EXTT8=
EXTT9=
PLAYORDER=
